<svg height="512pt" viewBox="0 0 512 512" width="512pt" xmlns="http://www.w3.org/2000/svg"><path d="m347 272c-41.355469 0-75 33.644531-75 75s33.644531 75 75 75 75-33.644531 75-75-33.644531-75-75-75zm0 120c-24.8125 0-45-20.1875-45-45s20.1875-45 45-45 45 20.1875 45 45-20.1875 45-45 45zm0 0"/><path d="m468.453125 289.183594 27.039063-27.035156-43.492188-43.492188v-218.65625h-452v452h218.65625l43.492188 43.492188 27.035156-27.039063c4.1875 2.007813 8.464844 3.789063 12.816406 5.34375v38.203125h90v-38.203125c4.351562-1.554687 8.628906-3.335937 12.816406-5.34375l27.035156 27.039063 63.640626-63.640626-27.039063-27.035156c2.007813-4.1875 3.789063-8.464844 5.34375-12.816406h38.203125v-90h-38.203125c-1.554687-4.351562-3.335937-8.628906-5.34375-12.816406zm-46.453125-229.183594h-90v-30h90zm-120-30v30h-272v-30zm-93.636719 392h-178.363281v-332h392v118.359375l-17.183594 17.1875c-4.1875-2.007813-8.464844-3.789063-12.816406-5.34375v-38.203125h-90v38.203125c-4.351562 1.554687-8.628906 3.335937-12.816406 5.34375l-27.035156-27.039063-63.640626 63.640626 27.039063 27.035156c-2.007813 4.1875-3.789063 8.464844-5.34375 12.816406h-38.203125v90h38.203125c1.554687 4.351562 3.335937 8.628906 5.34375 12.816406zm273.636719-60h-30.859375l-2.917969 11.222656c-4.945312 19.007813-13.453125 29.984375-17.054687 36.734375l21.898437 21.894531-21.214844 21.214844-21.894531-21.898437c-6.714843 3.585937-17.746093 12.117187-36.730469 17.054687l-11.226562 2.917969v30.859375h-30v-30.859375l-11.226562-2.917969c-19.003907-4.941406-29.992188-13.457031-36.730469-17.054687l-21.894531 21.898437-21.214844-21.214844 21.898437-21.894531c-3.605469-6.757812-12.113281-17.746093-17.054687-36.734375l-2.917969-11.222656h-30.859375v-30h30.859375l2.917969-11.222656c4.945312-19.007813 13.453125-29.984375 17.054687-36.734375l-21.898437-21.894531 21.214844-21.214844 21.898437 21.898437c6.753906-3.605469 17.742187-12.117187 36.730469-17.054687l11.222656-2.921875v-30.855469h30v30.859375l11.222656 2.917969c19.007813 4.945312 29.980469 13.453125 36.730469 17.054687l21.898437-21.894531 21.214844 21.210938-21.898437 21.898437c3.605469 6.753906 12.113281 17.742187 17.054687 36.730469l2.917969 11.222656h30.859375zm0 0"/></svg>