<svg height="512pt" viewBox="0 -19 512 512" width="512pt" xmlns="http://www.w3.org/2000/svg"><path d="m241 114.050781h30v30h-30zm0 0"/><path d="m482 84.050781h-168.324219c-19.097656-43.265625-50.703125-75.121093-57.675781-84.050781-6.945312 8.894531-38.515625 40.644531-57.675781 84.050781h-168.324219v300h-30v45c0 24.8125 20.1875 45 45 45h422c24.8125 0 45-20.1875 45-45v-45h-30zm-30 30v270h-62.507812c-6.96875-34.195312-37.273438-60-73.496094-60-4.007813 0-7.773438-1.5625-10.605469-4.394531s-4.390625-6.597656-4.390625-10.605469v-27.582031l13.121094-39.605469 76.878906 28.832031v-21.644531c0-41.265625-23.136719-79.941406-61.335938-98.90625-.613281-12.222656-2.441406-24.21875-5.507812-36.09375zm-268.316406 70.328125c1.175781 9.386719 3 18.945313 5.464844 28.71875l-34.773438 13.039063c4.988281-16.617188 15.292969-31.355469 29.308594-41.757813zm173.941406 41.761719-34.777344-13.042969c2.464844-9.777344 4.289063-19.335937 5.460938-28.722656 14.019531 10.402344 24.328125 25.140625 29.316406 41.765625zm-82.457031 37.910156h-38.335938l-9.9375-30h58.210938zm-47.347657 76.816407c8.5-8.496094 13.179688-19.796876 13.179688-31.816407v-15h30v15c0 12.019531 4.679688 23.320313 13.175781 31.820313 8.5 8.5 19.800781 13.179687 31.824219 13.179687 19.554688 0 36.226562 12.542969 42.421875 30h-204.84375c6.195313-17.457031 22.867187-30 42.421875-30 12.019531 0 23.320312-4.683593 31.820312-13.183593zm28.179688-294.105469c40.46875 52.257812 52.105469 99.945312 38.160156 157.289062h-76.320312c-13.945313-57.34375-2.3125-105.03125 38.160156-157.289062zm-196 67.277343h127.839844c-3.070313 11.875-4.898438 23.886719-5.511719 36.109376-37.152344 18.449218-61.328125 56.472656-61.328125 98.902343v21.644531l76.878906-28.832031 13.121094 39.605469v27.582031c0 4.003907-1.558594 7.769531-4.394531 10.605469-2.832031 2.832031-6.597657 4.394531-10.605469 4.394531-36.21875 0-66.523438 25.804688-73.492188 60h-62.507812zm422 315.011719c0 8.269531-6.730469 15-15 15h-422c-8.269531 0-15-6.730469-15-15v-15h452zm0 0"/></svg>